<svg width="1200" height="420" viewBox="0 0 1200 420" fill="none" xmlns="http://www.w3.org/2000/svg" role="img" aria-labelledby="title desc">
  <title id="title">Portfolio Project Map</title>
  <desc id="desc">A custom project map showing Pranav Dubey's GitHub portfolio across ERP automation, fraud detection, inventory systems, data apps, and frontend tools.</desc>
  <defs>
    <linearGradient id="bg" x1="0" y1="0" x2="1200" y2="420" gradientUnits="userSpaceOnUse">
      <stop stop-color="#020617"/>
      <stop offset="1" stop-color="#111827"/>
    </linearGradient>
    <linearGradient id="edge" x1="160" y1="210" x2="1040" y2="210" gradientUnits="userSpaceOnUse">
      <stop stop-color="#22d3ee"/>
      <stop offset="0.5" stop-color="#818cf8"/>
      <stop offset="1" stop-color="#22c55e"/>
    </linearGradient>
    <filter id="shadow" x="-20%" y="-20%" width="140%" height="140%">
      <feDropShadow dx="0" dy="12" stdDeviation="16" flood-color="#000000" flood-opacity="0.38"/>
    </filter>
  </defs>

  <rect width="1200" height="420" rx="30" fill="url(#bg)"/>
  <path d="M60 345C230 240 350 372 516 255C680 138 812 241 948 138C1047 63 1129 101 1166 132" stroke="#334155" stroke-width="2" stroke-opacity="0.55"/>
  <path d="M160 210H1040" stroke="url(#edge)" stroke-width="5" stroke-linecap="round" stroke-dasharray="10 16"/>

  <text x="64" y="60" font-family="Inter, Segoe UI, Arial, sans-serif" font-size="28" font-weight="800" fill="#f8fafc">Portfolio Map</text>
  <text x="64" y="92" font-family="Inter, Segoe UI, Arial, sans-serif" font-size="17" fill="#94a3b8">Practical projects moving from UI prototypes to backend systems, databases, AI services, and business automation.</text>

  <g font-family="Inter, Segoe UI, Arial, sans-serif" filter="url(#shadow)">
    <g transform="translate(70 130)">
      <rect width="198" height="150" rx="22" fill="#07111f" stroke="#38bdf8" stroke-opacity="0.65"/>
      <circle cx="38" cy="38" r="18" fill="#082f49" stroke="#38bdf8"/>
      <text x="30" y="45" font-size="21" font-weight="800" fill="#e0f2fe">1</text>
      <text x="24" y="82" font-size="21" font-weight="800" fill="#f8fafc">Nexus SAP</text>
      <text x="24" y="111" font-size="14" fill="#94a3b8">ERP + IRIS AI</text>
      <text x="24" y="135" font-size="13" fill="#67e8f9">FastAPI • PyQt6 • ML</text>
    </g>
    <g transform="translate(304 130)">
      <rect width="198" height="150" rx="22" fill="#07111f" stroke="#818cf8" stroke-opacity="0.65"/>
      <circle cx="38" cy="38" r="18" fill="#1e1b4b" stroke="#818cf8"/>
      <text x="30" y="45" font-size="21" font-weight="800" fill="#e0e7ff">2</text>
      <text x="24" y="82" font-size="21" font-weight="800" fill="#f8fafc">PulseShield</text>
      <text x="24" y="111" font-size="14" fill="#94a3b8">Fraud detection</text>
      <text x="24" y="135" font-size="13" fill="#c4b5fd">Node • Flask • MySQL</text>
    </g>
    <g transform="translate(538 130)">
      <rect width="198" height="150" rx="22" fill="#07111f" stroke="#22c55e" stroke-opacity="0.65"/>
      <circle cx="38" cy="38" r="18" fill="#052e16" stroke="#22c55e"/>
      <text x="30" y="45" font-size="21" font-weight="800" fill="#dcfce7">3</text>
      <text x="24" y="82" font-size="21" font-weight="800" fill="#f8fafc">Inventory</text>
      <text x="24" y="111" font-size="14" fill="#94a3b8">Operations system</text>
      <text x="24" y="135" font-size="13" fill="#86efac">Django • RBAC • SQL</text>
    </g>
    <g transform="translate(772 130)">
      <rect width="198" height="150" rx="22" fill="#07111f" stroke="#f59e0b" stroke-opacity="0.65"/>
      <circle cx="38" cy="38" r="18" fill="#451a03" stroke="#f59e0b"/>
      <text x="30" y="45" font-size="21" font-weight="800" fill="#fef3c7">4</text>
      <text x="24" y="82" font-size="21" font-weight="800" fill="#f8fafc">AI News</text>
      <text x="24" y="111" font-size="14" fill="#94a3b8">Data app</text>
      <text x="24" y="135" font-size="13" fill="#fde68a">Streamlit • Pandas</text>
    </g>
    <g transform="translate(1006 130)">
      <rect width="142" height="150" rx="22" fill="#07111f" stroke="#ec4899" stroke-opacity="0.65"/>
      <circle cx="38" cy="38" r="18" fill="#500724" stroke="#ec4899"/>
      <text x="30" y="45" font-size="21" font-weight="800" fill="#fce7f3">5</text>
      <text x="24" y="82" font-size="21" font-weight="800" fill="#f8fafc">Expense</text>
      <text x="24" y="111" font-size="14" fill="#94a3b8">Finance UI</text>
      <text x="24" y="135" font-size="13" fill="#f9a8d4">JS • Charts</text>
    </g>
  </g>

  <g font-family="Inter, Segoe UI, Arial, sans-serif">
    <rect x="64" y="330" width="1072" height="48" rx="18" fill="#020617" fill-opacity="0.64" stroke="#334155" stroke-opacity="0.8"/>
    <text x="92" y="361" font-size="16" fill="#cbd5e1">Positioning:</text>
    <text x="184" y="361" font-size="16" font-weight="700" fill="#f8fafc">AI-enabled business software</text>
    <text x="412" y="361" font-size="16" fill="#64748b">•</text>
    <text x="434" y="361" font-size="16" font-weight="700" fill="#f8fafc">backend + databases</text>
    <text x="606" y="361" font-size="16" fill="#64748b">•</text>
    <text x="628" y="361" font-size="16" font-weight="700" fill="#f8fafc">ML services</text>
    <text x="728" y="361" font-size="16" fill="#64748b">•</text>
    <text x="750" y="361" font-size="16" font-weight="700" fill="#f8fafc">dashboards and automation</text>
  </g>
</svg>
